<?xml version="1.0" encoding="utf-8"?>
<!-- Generator: Adobe Illustrator 23.0.0, SVG Export Plug-In . SVG Version: 6.00 Build 0)  -->
<svg version="1.1" id="Layer_1" xmlns="http://www.w3.org/2000/svg" xmlns:xlink="http://www.w3.org/1999/xlink" x="0px" y="0px"
	 viewBox="0 0 512 200.2" style="enable-background:new 0 0 512 200.2;" xml:space="preserve">
<style type="text/css">
	.st0{fill:#7E8083;}
	.st1{fill:#CFD1D2;}
</style>
<g>
	<path class="st0" d="M221.8,72.2V17.1c-18.2-0.3-37.7,0.9-58.4,3.8c-10.2,1.8-19.3,4.4-27.4,7.6l0.5,43.7H221.8z"/>
	<path class="st0" d="M238.9,17.8v54.4H365C333.4,39.6,291.7,21.5,238.9,17.8z"/>
	<path class="st0" d="M119,36.8c-14.8,9.1-25.8,21.1-35.4,35.4h35.8L119,36.8z"/>
	<path class="st0" d="M486.4,157.5v-25.6h-8.5c-4.7,0-8.5-3.8-8.5-8.5s3.8-8.5,8.5-8.5h4.4c-11.6-12.5-46.9-25.6-98.3-25.6H69.7
		L25.6,104v11h8.5c4.7,0,8.5,3.8,8.5,8.5s-3.8,8.5-8.5,8.5h-8.5v25.6c0,4.7-3.8,8.5-8.5,8.5v17h17.6c4.2-38.4,36.9-68.3,76.3-68.3
		s72,30,76.3,68.3h137.5c4.2-38.4,36.9-68.3,76.3-68.3s72,30,76.3,68.3h17.5V166C490.2,166,486.4,162.2,486.4,157.5z"/>
	<path class="st1" d="M503.1,149v-25.6c0-32.5-58.7-50.3-115.4-51.2C339.1,12.9,262.7-10.1,161,4c-0.1,0-0.2,0-0.3,0.1
		c-55.1,9.7-80,38.9-98.1,69.6l-48.2,16c-3.5,1.2-5.8,4.4-5.8,8.1V149c-4.8,0-8.6,3.8-8.6,8.5l0,0v34.1c0,4.7,3.8,8.5,8.5,8.5h34.1
		c4.7,0,8.5-3.8,8.5-8.5c0-32.9,26.8-59.7,59.7-59.7s59.7,26.8,59.7,59.7c0,4.7,3.8,8.5,8.5,8.5h153.6c4.7,0,8.5-3.8,8.5-8.5
		c0-32.9,26.8-59.7,59.7-59.7s59.7,26.8,59.7,59.7c0,4.7,3.8,8.5,8.5,8.5h34.1c4.7,0,8.5-3.8,8.5-8.5v-34.1
		C511.6,152.8,507.8,149,503.1,149z M238.9,17.8c52.8,3.7,94.5,21.8,126.1,54.4H238.9V17.8z M163.4,20.9c20.7-2.9,40.2-4.1,58.4-3.8
		v55.1h0.1h-0.1h-85.3L136,28.5C144.1,25.3,153.2,22.7,163.4,20.9z M119,36.8l0.4,35.4H83.6C93.2,57.9,104.2,45.9,119,36.8z
		 M494.9,183.1h-17.5c-4.3-38.3-36.9-68.3-76.3-68.3s-72.1,29.9-76.3,68.3H187.3c-4.3-38.3-36.9-68.3-76.3-68.3
		s-72.1,29.9-76.3,68.3H17.1v-17c4.7,0,8.5-3.8,8.5-8.5V132h8.5c4.7,0,8.5-3.8,8.5-8.5s-3.8-8.5-8.5-8.5h-8.5v-11l44.1-14.7H384
		c51.4,0,86.7,13.1,98.3,25.6h-4.4c-4.7,0-8.5,3.8-8.5,8.5c0,4.7,3.8,8.5,8.5,8.5h8.5v25.6c0,4.7,3.8,8.5,8.5,8.5V183.1z"/>
</g>
</svg>
