<?xml version="1.0" encoding="utf-8"?>
<!-- Generator: Adobe Illustrator 23.0.0, SVG Export Plug-In . SVG Version: 6.00 Build 0)  -->
<svg version="1.1" id="Capa_1" xmlns="http://www.w3.org/2000/svg" xmlns:xlink="http://www.w3.org/1999/xlink" x="0px" y="0px"
	 viewBox="0 0 33.6 20.7" style="enable-background:new 0 0 33.6 20.7;" xml:space="preserve">
<style type="text/css">
	.st0{fill:#CFD1D2;}
	.st1{fill:#7E8083;}
</style>
<g>
	<g>
		<path class="st0" d="M25.9,20.4H6.7c-3.6,0-6.4-2.9-6.4-6.4s2.8-6.4,6.3-6.4c1.2-4.3,5.2-7.3,9.7-7.3c3.7,0,7.1,2,8.9,5.3
			c0.3,0,0.5,0,0.8,0c4.1,0,7.4,3.3,7.4,7.4C33.3,17.1,30,20.4,25.9,20.4z M6.7,8.5c-3,0-5.4,2.4-5.4,5.4s2.4,5.4,5.4,5.4h19.2
			c3.6,0,6.4-2.9,6.4-6.4c0-3.6-2.9-6.4-6.4-6.4c-0.3,0-0.6,0-1,0.1c-0.2,0-0.4-0.1-0.5-0.3c-1.5-3.1-4.7-5.1-8.1-5.1
			c-4.2,0-7.8,2.8-8.8,6.9C7.4,8.4,7.1,8.5,6.9,8.5H6.7z"/>
		<path class="st0" d="M25.9,20.7H6.7C3,20.7,0,17.7,0,14c0-3.5,2.8-6.5,6.4-6.7C7.7,2.9,11.6,0,16.2,0c3.7,0,7.2,2,9,5.3
			c0.2,0,0.4,0,0.6,0c4.2,0,7.7,3.5,7.7,7.7c0,2.1-0.8,4-2.3,5.4C29.8,19.9,27.9,20.7,25.9,20.7z M16.2,0.5c-4.4,0-8.2,2.9-9.4,7.1
			L6.7,7.8H6.5c-3.3,0.1-6,2.9-6,6.2c0,3.4,2.8,6.2,6.2,6.2h19.2c1.9,0,3.7-0.8,5.1-2.1c1.4-1.4,2.1-3.2,2.1-5.1
			c0-4-3.2-7.2-7.2-7.2c-0.2,0-0.5,0-0.8,0h-0.2l-0.1-0.1C23.1,2.5,19.8,0.5,16.2,0.5z M25.9,19.7H6.7C3.6,19.7,1,17.1,1,14
			s2.6-5.7,5.7-5.7h0.2c0.1,0,0.2-0.1,0.2-0.2c1-4.2,4.7-7.1,9-7.1c3.6,0,6.8,2,8.4,5.2c0,0.1,0.2,0.2,0.3,0.1
			c0.4-0.1,0.7-0.1,1-0.1c3.7,0,6.7,3,6.7,6.7C32.6,16.7,29.6,19.7,25.9,19.7z M6.7,8.8c-2.9,0-5.2,2.3-5.2,5.2s2.3,5.2,5.2,5.2
			h19.2c3.4,0,6.2-2.8,6.2-6.2s-2.8-6.2-6.2-6.2c-0.3,0-0.6,0-1,0.1c-0.3,0-0.6-0.1-0.8-0.4c-1.5-3-4.5-4.9-7.9-4.9
			c-4.1,0-7.6,2.8-8.6,6.7c0,0.2-0.3,0.5-0.7,0.5H6.7z"/>
	</g>
	<g>
		<path class="st0" d="M25.9,20.4c-0.3,0-0.5-0.2-0.5-0.5s0.2-0.5,0.5-0.5c3.6,0,6.4-2.9,6.4-6.4c0-3.6-2.9-6.4-6.4-6.4
			c-1.9,0-3.6,0.8-4.9,2.2c-0.2,0.2-0.5,0.2-0.7,0s-0.2-0.5,0-0.7c1.4-1.6,3.5-2.6,5.6-2.6c4.1,0,7.4,3.3,7.4,7.4
			C33.3,17.1,30,20.4,25.9,20.4z"/>
		<path class="st0" d="M25.9,20.7c-0.4,0-0.8-0.3-0.8-0.8s0.3-0.8,0.8-0.8c3.4,0,6.2-2.8,6.2-6.2s-2.8-6.2-6.2-6.2
			c-1.8,0-3.5,0.8-4.7,2.1C21.1,9,20.9,9,20.7,9.1c-0.2,0-0.4-0.1-0.5-0.2c-0.3-0.3-0.3-0.7-0.1-1.1c1.5-1.7,3.6-2.6,5.8-2.6
			c4.2,0,7.7,3.5,7.7,7.7c0,2.1-0.8,4-2.3,5.4S27.9,20.7,25.9,20.7z M25.9,6.3c3.7,0,6.7,3,6.7,6.7s-3,6.7-6.7,6.7
			c-0.1,0-0.2,0.1-0.2,0.2s0.1,0.2,0.2,0.2c1.9,0,3.7-0.7,5.1-2.1s2.1-3.2,2.1-5.1c0-4-3.2-7.2-7.2-7.2c-2.1,0-4.1,0.9-5.4,2.5
			c-0.1,0.1-0.1,0.3,0,0.4c0.1,0,0.1,0.1,0.2,0.1s0.1,0,0.2-0.1C22.1,7.1,23.9,6.3,25.9,6.3z"/>
	</g>
</g>
<path class="st1" d="M21.6,9.3c-0.2,0.2-0.4,0.3-0.7,0.3c-0.3,0-0.5-0.1-0.7-0.2c-0.4-0.4-0.5-1-0.1-1.4c0.9-1.1,2.1-1.8,3.4-2.3
	c-1.6-2.3-4.2-3.7-7-3.7c-4,0-7.4,2.7-8.3,6.5C8,9,7.6,9.3,7.2,9.3H7c-2.8,0-5,2.2-5,4.9s2.2,4.9,4.9,4.9h19.2
	c3.3,0,5.9-2.7,5.9-5.9c0-3.3-2.7-5.9-5.9-5.9c-0.2,0-0.3,0-0.5,0c-0.1,0-0.2,0-0.3,0C23.9,7.5,22.6,8.2,21.6,9.3z"/>
</svg>
