<?xml version="1.0" encoding="utf-8"?>
<!-- Generator: Adobe Illustrator 23.0.0, SVG Export Plug-In . SVG Version: 6.00 Build 0)  -->
<svg version="1.1" id="Capa_1" xmlns="http://www.w3.org/2000/svg" xmlns:xlink="http://www.w3.org/1999/xlink" x="0px" y="0px"
	 viewBox="0 0 61 41" style="enable-background:new 0 0 61 41;" xml:space="preserve">
<style type="text/css">
	.st0{fill:#7E8083;}
	.st1{fill:#CFD1D2;}
	.st2{fill:#FFFFFF;}
</style>
<path class="st0" d="M17.6,9.1h-0.2C17.1,9,16.8,9,16.5,9c-3.6,0-6.5,2.9-6.5,6.5c0,0.1,0,0.1,0,0.2v0.2v0.2c0,0.1,0,0.2,0,0.4v0.9
	l-0.9,0.4C5.6,19.6,3,23.7,3,27.7C3,33.4,7.6,38,13.3,38h24.9h0.5h9.8c5.3,0,9.5-4.3,9.5-9.5c0-4.6-3.3-8.7-7.8-9.5
	c-0.1,0-2.4-0.3-4.5,0c-0.8,0.1-1.6-0.5-1.7-1.3c-0.1-0.8,0.4-1.6,1.3-1.7c1.3-0.2,2.6-0.2,3.6-0.2C48,8.6,41.8,3,34.6,3
	C30.2,3,25.8,5.1,23,8.6c1.9,1.8,3,4.3,3,6.9c0,0.8-0.7,1.5-1.5,1.5S23,16.3,23,15.5c0-2.2-1.1-4.2-3-5.5c-0.2-0.1-0.4-0.3-0.7-0.4
	l-0.2-0.1c-0.3-0.1-0.5-0.2-0.8-0.3V8.7l0,0l-0.1,0.5C18.1,9.2,17.8,9.1,17.6,9.1z"/>
<path class="st1" d="M51.3,17.2L51,17.1v-0.4C50.5,7.9,43.3,1,34.6,1C29.3,1,24.2,3.5,21,7.8l-0.3,0.3l-0.6-0.3
	c-0.2-0.1-0.4-0.2-0.6-0.3c-0.1,0-0.2-0.1-0.3-0.1c-0.2-0.1-0.4-0.1-0.6-0.2c-0.2,0-0.2-0.1-0.3-0.1c-0.2,0-0.4-0.1-0.7-0.1h-0.1
	c-0.1,0-0.1,0-0.2,0c-0.3,0-0.6-0.1-1-0.1C11.8,7,8,10.8,8,15.5c0,0.1,0,0.2,0,0.3v0.3l-0.3,0.2C3.7,18.5,1,23.1,1,27.7
	C1,34.5,6.5,40,13.3,40h24.5c0.1,0,0.2,0,0.3,0h0.1h0.1c0.1,0,0.2,0,0.3,0h9.8C54.8,40,60,34.8,60,28.5C60,23.2,56.4,18.5,51.3,17.2
	z M48.5,39h-9.8c-0.1,0-0.1,0-0.2,0h-0.3H38c-0.1,0-0.1,0-0.2,0H13.3C7.1,39,2,33.9,2,27.7c0-4.3,2.8-8.8,6.7-10.7L9,16.8v-0.3
	c0-0.1,0-0.3,0-0.4v-0.2v-0.2c0-0.1,0-0.2,0-0.3c0-4,3.4-7.4,7.5-7.4c0.3,0,0.7,0,1,0.1c0.1,0,0.2,0,0.3,0c0.3,0,0.6,0.1,0.8,0.2
	h0.1c0.3,0.1,0.6,0.2,0.9,0.3l0.2,0.1c0.3,0.1,0.6,0.3,0.8,0.4c2.2,1.4,3.4,3.7,3.4,6.3c0,0.3,0.2,0.5,0.5,0.5s0.5-0.2,0.5-0.5
	c0-2.5-1.1-4.9-3-6.5l-0.4-0.3l0.3-0.4c3-3.9,7.8-6.3,12.7-6.3c7.9,0,14.6,6.3,15.3,14.3l0.1,0.6h-0.6c-1-0.1-2.5-0.1-4,0.1
	c-0.3,0-0.5,0.3-0.4,0.6c0,0.2,0.2,0.4,0.5,0.4c2.4-0.4,4.8,0,4.9,0c4.9,0.9,8.6,5.4,8.6,10.5C59,34.3,54.3,39,48.5,39z"/>
<path class="st2" d="M18.4,8.8L18.4,8.8L18.4,8.8z"/>
<path class="st1" d="M50.3,18.5c-0.1,0-2.5-0.3-4.7,0c-0.1,0-0.1,0-0.2,0c-0.5,0-0.9-0.4-1-0.8c-0.1-0.5,0.3-1.1,0.8-1.1
	c1.5-0.2,3.1-0.2,4.1-0.1c-0.5-7.9-7-14-14.7-14c-4.7,0-9.4,2.4-12.3,6.1c2,1.7,3.2,4.1,3.2,6.9c0,0.6-0.4,1-1,1s-1-0.4-1-1
	c0-2.5-1.3-4.6-3.2-5.9c-0.2-0.1-0.5-0.3-0.7-0.4c-0.1,0-0.1-0.1-0.2-0.1c-0.3-0.1-0.5-0.2-0.8-0.3h-0.1l0,0v0.5
	c0.3,0.1,0.5,0.2,0.8,0.3l0.2,0.1c0.2,0.1,0.4,0.2,0.7,0.4c1.9,1.2,3,3.2,3,5.5c0,0.8,0.7,1.5,1.5,1.5s1.5-0.7,1.5-1.5
	c0-2.6-1.1-5.1-3-6.9c2.6-3.6,7-5.7,11.4-5.7C41.8,3,48,8.6,48.9,15.9c-1,0-2.3,0-3.6,0.2c-0.8,0.1-1.4,0.9-1.3,1.7
	c0.1,0.8,0.9,1.4,1.7,1.3c2.2-0.3,4.4,0,4.5,0c4.4,0.8,7.8,4.9,7.8,9.5c0,5.3-4.3,9.5-9.5,9.5h-9.8h-0.5H13.3C7.6,38,3,33.4,3,27.7
	c0-4,2.6-8.1,6.1-9.8l0.9-0.4v-0.9c0-0.1,0-0.2,0-0.4V16v-0.2c0-0.1,0-0.1,0-0.2c0-3.6,2.9-6.5,6.5-6.5c0.3,0,0.6,0,0.9,0.1h0.2
	c0.2,0,0.5,0.1,0.7,0.2l0.1-0.5c-0.3-0.1-0.5-0.1-0.8-0.2c-0.1,0-0.2,0-0.2,0c-0.3,0-0.6-0.1-0.9-0.1c-3.9,0-7,3.1-7,7
	c0,0.1,0,0.2,0,0.2V16v0.2c0,0.1,0,0.3,0,0.4v0.6l-0.6,0.3c-3.7,1.8-6.4,6.1-6.4,10.3c0,6,4.9,10.8,10.8,10.8h24.5
	c0.1,0,0.1,0,0.2,0h0.2h0.3c0.1,0,0.1,0,0.2,0h9.8c5.5,0,10-4.5,10-10C58.5,23.7,55,19.4,50.3,18.5z"/>
<path class="st1" d="M52,16.3C51.2,7.1,43.7,0,34.6,0c-5.5,0-10.7,2.6-14.1,6.9c-0.2-0.1-0.3-0.1-0.5-0.2c-0.1,0-0.2-0.1-0.4-0.1
	c-0.2-0.1-0.4-0.1-0.7-0.2c-0.1,0-0.2-0.1-0.3-0.1c-0.2-0.1-0.5-0.1-0.8-0.1c-0.1,0-0.2,0-0.2,0C17.2,6,16.9,6,16.5,6
	C11.3,6,7,10.3,7,15.5v0.1C2.8,18,0,22.8,0,27.7C0,35,6,41,13.3,41h24.5c0.1,0,0.2,0,0.4,0h0.1c0.1,0,0.2,0,0.3,0h9.8
	c7,0,12.6-5.6,12.6-12.5C61,22.9,57.2,17.9,52,16.3z M48.5,40.5h-9.8c-0.1,0-0.2,0-0.3,0h-0.1h-0.1c-0.1,0-0.2,0-0.3,0H13.3
	c-7.1,0-12.8-5.8-12.8-12.8c0-4.8,2.9-9.5,7-11.8l0,0c0-0.1,0-0.2,0-0.4c0-5,4-9,9-9c0.3,0,0.7,0,1,0.1c0.1,0,0.2,0,0.3,0
	c0.2,0,0.5,0.1,0.7,0.1c0.1,0,0.2,0.1,0.3,0.1C19,6.9,19.2,6.9,19.4,7c0.1,0,0.2,0.1,0.3,0.1c0.2,0.1,0.4,0.2,0.6,0.3
	c0.1,0,0.2,0.1,0.2,0.1c3.3-4.3,8.5-7,13.9-7c8.9,0,16.4,7.2,16.9,16.2c5.2,1.4,9,6.3,9,11.8C60.5,35.1,55.1,40.5,48.5,40.5z"/>
<path class="st1" d="M51.5,16.7C51,7.7,43.6,0.5,34.6,0.5c-5.4,0-10.7,2.7-13.9,7c-0.1,0-0.2-0.1-0.2-0.1c-0.2-0.1-0.4-0.2-0.6-0.3
	c-0.1,0-0.2-0.1-0.3-0.1c-0.2-0.1-0.4-0.1-0.6-0.2c-0.1,0-0.2-0.1-0.3-0.1c-0.2-0.1-0.5-0.1-0.7-0.1c-0.1,0-0.2,0-0.3,0
	c-0.3,0-0.7-0.1-1-0.1c-5,0-9,4-9,9c0,0.1,0,0.3,0,0.4l0,0c-4.2,2.3-7,7-7,11.8c0,7.1,5.8,12.8,12.8,12.8H38c0.1,0,0.2,0,0.3,0h0.1
	h0.1c0.1,0,0.2,0,0.3,0h9.8c6.6,0,12-5.4,12-12C60.5,23,56.7,18.1,51.5,16.7z M48.5,40h-9.8c-0.1,0-0.2,0-0.3,0h-0.1h-0.1
	c-0.1,0-0.2,0-0.3,0H13.3C6.5,40,1,34.5,1,27.7c0-4.6,2.7-9.1,6.8-11.3L8,16.2v-0.3c0-0.1,0-0.2,0-0.3C8,10.8,11.8,7,16.5,7
	c0.3,0,0.6,0,1,0.1c0.1,0,0.1,0,0.2,0h0.1c0.2,0,0.4,0.1,0.7,0.1c0.1,0,0.2,0,0.3,0.1c0.2,0.1,0.4,0.1,0.6,0.2
	c0.1,0,0.2,0.1,0.3,0.1c0.2,0.1,0.4,0.2,0.6,0.3l0.6,0.3L21,7.8C24.2,3.5,29.3,1,34.6,1C43.3,1,50.5,7.9,51,16.7v0.4l0.4,0.1
	c5,1.3,8.7,6.1,8.7,11.3C60,34.8,54.8,40,48.5,40z"/>
<path class="st1" d="M50.4,18c-0.1,0-2.5-0.3-4.9,0c-0.2,0-0.5-0.2-0.5-0.4c0-0.3,0.1-0.5,0.4-0.6c1.5-0.2,3-0.2,4-0.1H50l-0.1-0.6
	C49.2,8.3,42.5,2,34.6,2c-4.8,0-9.7,2.4-12.7,6.3l-0.3,0.4L22,9c1.9,1.6,3,4,3,6.5c0,0.3-0.2,0.5-0.5,0.5S24,15.8,24,15.5
	c0-2.5-1.3-4.9-3.4-6.3c-0.2-0.2-0.5-0.3-0.8-0.4l-0.2-0.1c-0.3-0.1-0.6-0.3-0.9-0.3h-0.1c-0.3-0.1-0.6-0.1-0.8-0.2
	c-0.1,0-0.2,0-0.3,0c-0.3,0-0.7-0.1-1-0.1C12.4,8,9,11.4,9,15.5c0,0.1,0,0.2,0,0.3V16v0.2c0,0.1,0,0.3,0,0.4v0.3L8.7,17
	C4.8,18.8,2,23.3,2,27.7C2,33.9,7.1,39,13.3,39h24.5c0.1,0,0.1,0,0.2,0h0.2h0.3c0.1,0,0.1,0,0.2,0h9.8C54.3,39,59,34.3,59,28.5
	C59,23.4,55.3,18.9,50.4,18z M48.5,38.5h-9.8c-0.1,0-0.1,0-0.2,0h-0.3H38c-0.1,0-0.1,0-0.2,0H13.3c-6,0-10.8-4.9-10.8-10.8
	c0-4.2,2.7-8.5,6.4-10.3l0.6-0.3v-0.6c0-0.1,0-0.3,0-0.4v-0.2v-0.2c0-0.1,0-0.2,0-0.2c0-3.9,3.1-7,7-7c0.3,0,0.6,0,0.9,0.1
	c0.1,0,0.2,0,0.2,0c0.3,0,0.5,0.1,0.8,0.2l0,0l0,0l0,0h0.1c0.3,0.1,0.6,0.2,0.8,0.3c0.1,0,0.1,0.1,0.2,0.1c0.2,0.1,0.5,0.2,0.7,0.4
	c1.9,1.2,3.2,3.4,3.2,5.9c0,0.6,0.4,1,1,1s1-0.4,1-1c0-2.8-1.2-5.2-3.2-6.9c2.9-3.8,7.6-6.1,12.3-6.1c7.7,0,14.2,6.1,14.8,13.9
	c-1-0.1-2.6-0.1-4.1,0.1c-0.5,0.1-0.9,0.6-0.8,1.1c0.1,0.5,0.5,0.8,1,0.8c0,0,0.1,0,0.2,0c2.2-0.3,4.5,0,4.7,0
	c4.7,0.9,8.2,5.2,8.2,10C58.5,34,54,38.5,48.5,38.5z"/>
</svg>
