<?xml version="1.0" encoding="utf-8"?>
<!-- Generator: Adobe Illustrator 23.0.0, SVG Export Plug-In . SVG Version: 6.00 Build 0)  -->
<svg version="1.1" id="Capa_1" xmlns="http://www.w3.org/2000/svg" xmlns:xlink="http://www.w3.org/1999/xlink" x="0px" y="0px"
	 viewBox="0 0 468.5 607.8" style="enable-background:new 0 0 468.5 607.8;" xml:space="preserve">
<style type="text/css">
	.st0{fill:#7E8083;}
	.st1{fill:#CFD1D2;}
</style>
<path class="st0" d="M227,475.6v117.6l14.7-0.1v-93.3v-31.5h-0.1v-16.7c0.1,0,0.1,0,0.1,0v-14c0-1.9,0.8-3.8,2.2-5.2l54.9-54.9
	c2.9-2.9,2.9-7.6,0-10.5s-7.6-2.9-10.5,0l-33.9,33.9c-2.2,2.1-5.3,2.7-8.1,1.6s-4.6-3.8-4.6-6.8v-97.4c0-4.1-3.3-7.4-7.4-7.4
	c-4.1,0-7.4,3.3-7.4,7.4v67.9c0,3-1.8,5.7-4.6,6.8c-2.8,1.2-6,0.5-8.1-1.6l-33.9-33.9c-2.9-2.9-7.6-2.9-10.5,0s-2.9,7.6,0,10.5
	l54.8,54.9c1.4,1.4,2.2,3.2,2.2,5.2v43.6c0.1,0,0.1,0,0.1,0v9.1h0.1V475.6z"/>
<path class="st0" d="M234.3,16.7c-120,0-217.6,97.6-217.6,217.6c0,112.5,85.8,205.3,195.4,216.5v-39.6l-52.7-52.7
	c-8.6-8.7-8.6-22.7,0-31.4c8.7-8.6,22.7-8.6,31.4,0l21.3,21.3v-50c0-12.2,10-22.2,22.2-22.2s22.2,10,22.2,22.2V378l21.3-21.3
	c8.7-8.6,22.7-8.6,31.4,0c8.7,8.7,8.7,22.7,0,31.4l-52.7,52.7v10c109.6-11.2,195.4-104,195.4-216.5
	C451.9,114.3,354.3,16.7,234.3,16.7z"/>
<path class="st1" d="M241.7,499.8v93.3l-14.7,0.1V475.6v-14.8h-0.1v7.6c-4.9-0.2-9.8-0.5-14.6-0.9v140.3h43.8V467.4
	c-4.8,0.4-9.6,0.8-14.4,0.9L241.7,499.8L241.7,499.8z"/>
<path class="st1" d="M234.3,0C105.2,0,0,105.1,0,234.3c0,121.8,93.4,222.1,212.3,233.2v-6.7h14.6v-9.1c0,0,0,0-0.1,0v-43.6
	c0-2-0.8-3.8-2.2-5.2L169.8,348c-2.9-2.9-2.9-7.6,0-10.5s7.6-2.9,10.5,0l33.9,33.9c2.1,2.1,5.3,2.8,8.1,1.6c2.8-1.1,4.6-3.8,4.6-6.8
	v-67.9c0-4.1,3.3-7.4,7.4-7.4c4.1,0,7.4,3.3,7.4,7.4v97.4c0,3,1.8,5.7,4.6,6.8c2.8,1.1,5.9,0.5,8.1-1.6l33.9-33.9
	c2.9-2.9,7.6-2.9,10.5,0s2.9,7.6,0,10.5l-54.9,54.9c-1.4,1.4-2.2,3.3-2.2,5.2v14c0,0,0,0-0.1,0v16.7h0.1v-7.5h14.4v6.6
	c119-11,212.4-111.3,212.4-233.1C468.5,105.1,363.4,0,234.3,0z M256.5,450.8v-10l52.7-52.7c8.7-8.7,8.7-22.7,0-31.4
	c-8.7-8.6-22.7-8.6-31.4,0L256.5,378v-79.6c0-12.2-10-22.2-22.2-22.2s-22.2,10-22.2,22.2v50l-21.3-21.3c-8.7-8.6-22.7-8.6-31.4,0
	c-8.6,8.7-8.6,22.7,0,31.4l52.7,52.7v39.6c-109.6-11.2-195.4-104-195.4-216.5c0-120,97.6-217.6,217.6-217.6s217.6,97.6,217.6,217.6
	C451.9,346.8,366.1,439.6,256.5,450.8z"/>
<path class="st1" d="M241.7,460.8v7.5c4.8-0.1,9.6-0.5,14.4-0.9v-6.6H241.7z"/>
<path class="st1" d="M226.9,460.8h-14.6v6.7c4.8,0.5,9.7,0.8,14.6,0.9V460.8z"/>
</svg>
