<?xml version="1.0" encoding="utf-8"?>
<!-- Generator: Adobe Illustrator 23.0.0, SVG Export Plug-In . SVG Version: 6.00 Build 0)  -->
<svg version="1.1" id="Capa_1" xmlns="http://www.w3.org/2000/svg" xmlns:xlink="http://www.w3.org/1999/xlink" x="0px" y="0px"
	 viewBox="0 0 194.7 400" style="enable-background:new 0 0 194.7 400;" xml:space="preserve">
<style type="text/css">
	.st0{fill:#7E8083;}
	.st1{fill:#CFD1D2;}
</style>
<path class="st0" d="M97.4,9.3C77.6,9.3,55.5,33.7,38,74.6C20,116.8,9.3,171.1,9.3,219.8c0,22,8.2,43,23,59.3
	c13.6,14.9,31.6,24.6,51.2,27.7v-25.6l-33-33c-5.4-5.4-5.4-14.2,0-19.6c5.4-5.4,14.2-5.4,19.6,0l13.3,13.3v-59.1
	c0-7.7,6.2-13.9,13.9-13.9s13.9,6.2,13.9,13.9v12.8l4.1-4.1c5.4-5.4,14.2-5.4,19.6,0c5.4,5.4,5.4,14.2,0,19.6l-23.7,23.7v25.5
	l13.3-13.3c5.4-5.4,14.2-5.4,19.6,0c5.4,5.4,5.4,14.2,0,19.6l-32.8,33.1v7c19.6-3.1,37.7-12.9,51.2-27.7c14.8-16.3,23-37.3,23-59.3
	c0-48.3-10.8-102.5-28.8-144.8C139.2,33.8,117,9.3,97.4,9.3z"/>
<path class="st0" d="M102,390.7V332v-14.9v-9.7v-11.6l35.7-35.7c1.8-1.8,1.8-4.7,0-6.5s-4.7-1.8-6.5,0L102,282.8v-51.7l26.4-26.4
	c1.8-1.8,1.8-4.7,0-6.5s-4.7-1.8-6.5,0L102,218v-35.1c0-2.6-2.1-4.6-4.6-4.6c-2.6,0-4.6,2.1-4.6,4.6v81.4l-29.1-29.1
	c-1.8-1.8-4.7-1.8-6.5,0s-1.8,4.7,0,6.5l35.7,35.7v39.8h-0.1v73.6L102,390.7z"/>
<path class="st1" d="M97.4,0C73.5,0,48.7,25.9,29.5,71C11,114.3,0,169.9,0,219.8c0,24.2,9,47.5,25.5,65.5
	c15.3,16.8,35.8,27.6,58,30.9v-8.8h9.2l0.1,9.3v0.5h0.1v-39.8l-35.7-35.7c-1.8-1.8-1.8-4.7,0-6.5s4.7-1.8,6.5,0l29.1,29.1v-81.4
	c0-2.5,2-4.6,4.6-4.6c2.5,0,4.6,2,4.6,4.6V218l19.9-19.8c1.8-1.8,4.7-1.8,6.5,0s1.8,4.7,0,6.5L102,231.1v51.7l29.2-29.2
	c1.8-1.8,4.7-1.8,6.5,0s1.8,4.7,0,6.5L102,295.8v11.6h9.1v8.8c22.4-3.2,42.9-14,58.3-30.9c16.4-18,25.4-41.2,25.4-65.5
	c0-49.6-11-105.1-29.5-148.5C146,26,121.3,0,97.4,0z M162.5,279c-13.5,14.8-31.6,24.6-51.2,27.7v-7l32.8-33.1
	c5.4-5.4,5.4-14.2,0-19.6c-5.4-5.4-14.2-5.4-19.6,0l-13.3,13.3v-25.5l23.7-23.7c5.4-5.4,5.4-14.2,0-19.6c-5.4-5.4-14.2-5.4-19.6,0
	l-4.1,4.1v-12.8c0-7.7-6.2-13.9-13.9-13.9s-13.9,6.2-13.9,13.9v59.1l-13.3-13.3c-5.4-5.4-14.2-5.4-19.6,0s-5.4,14.2,0,19.6l33,33
	v25.6c-19.6-3.1-37.6-12.8-51.2-27.7c-14.8-16.3-23-37.3-23-59.3c0-48.7,10.7-103,28.7-145.2C55.5,33.7,77.6,9.3,97.4,9.3
	c19.6,0,41.8,24.5,59.3,65.6c18,42.3,28.8,96.5,28.8,144.8C185.5,241.7,177.3,262.7,162.5,279z"/>
<path class="st1" d="M102,317.1V332v58.7l-9.2,0.1v-73.6l-5-0.5c-1.4-0.1-2.9-0.3-4.3-0.5V400h27.6v-83.8c-1.3,0.2-2.7,0.4-4,0.5
	L102,317.1z"/>
<path class="st1" d="M102,307.4v9.7l5.1-0.4c1.3-0.1,2.7-0.3,4-0.5v-8.8L102,307.4L102,307.4z"/>
<path class="st1" d="M92.8,317.2v-0.5l-0.1-9.3h-9.2v8.8c1.4,0.2,2.9,0.4,4.3,0.5L92.8,317.2z"/>
</svg>
