<?xml version="1.0" encoding="utf-8"?>
<!-- Generator: Adobe Illustrator 23.0.0, SVG Export Plug-In . SVG Version: 6.00 Build 0)  -->
<svg version="1.1" id="Capa_1" xmlns="http://www.w3.org/2000/svg" xmlns:xlink="http://www.w3.org/1999/xlink" x="0px" y="0px"
	 viewBox="0 0 139.7 322" style="enable-background:new 0 0 139.7 322;" xml:space="preserve">
<style type="text/css">
	.st0{fill:#7E8083;}
	.st1{fill:#CFD1D2;}
</style>
<path class="st0" d="M65.8,246v67.6l8.4-0.1v-53.6h0.1v-14.3c0-0.3-0.1-0.5-0.1-0.8v-13.5c0-1.1,0.5-2.2,1.3-3l15.1-15.1
	c1.6-1.6,1.6-4.4,0-6s-4.4-1.6-6,0l-3.1,3.1c-1.3,1.3-3.1,1.6-4.6,0.9c-1.6-0.6-2.7-2.2-2.7-3.9v-56.2c0-2.4-1.9-4.2-4.2-4.2
	s-4.2,1.9-4.2,4.2v39c0,1.7-1,3.3-2.7,3.9c-1.6,0.6-3.5,0.3-4.6-0.9l-11-11c-1.6-1.6-4.4-1.6-6,0s-1.6,4.4,0,6l23.1,23.1
	c0.8,0.8,1.3,1.9,1.3,3v23.2h0.2v8.6H65.8z"/>
<path class="st0" d="M69.9,20.5l-60,220.1h47.2V216l-21.8-21.8c-5-5-5-13.1,0-18.1c5-4.9,13.1-4.9,18.1,0l3.8,3.8V151
	c0-7.1,5.7-12.8,12.8-12.8s12.8,5.7,12.8,12.8v47.3c4.6-1.9,10.1-0.9,13.8,2.8c5,5,5,13.1,0,18.1L82.7,233v7.5h45.9l-34.2-130
	L69.9,20.5z"/>
<path class="st1" d="M138.2,238.5l-35.3-129.4l-29-106C73.4,1.3,71.7,0,69.8,0s-3.6,1.3-4.1,3.1L0.2,243.6c-0.4,1.3-0.1,2.7,0.7,3.7
	s2,1.6,3.4,1.6h53v-11.5h8.3v-23.2c0-1.1-0.5-2.2-1.3-3l-23.1-23.1c-1.6-1.6-1.6-4.4,0-6s4.4-1.6,6,0l11,11c1.2,1.3,3.1,1.6,4.6,0.9
	c1.6-0.6,2.7-2.2,2.7-3.9v-39c0-2.4,1.9-4.2,4.2-4.2s4.2,1.9,4.2,4.2v56.2c0,1.7,1.1,3.3,2.7,3.9c1.6,0.6,3.4,0.3,4.6-0.9l3.1-3.1
	c1.6-1.6,4.4-1.6,6,0s1.6,4.4,0,6l-15.1,15.1c-0.8,0.8-1.3,1.9-1.3,3v13.5c0,0.3,0,0.5,0.1,0.8v-8.2h8.2V249h53
	c1.3,0,2.6-0.6,3.4-1.6c0.8-1,1-2.4,0.7-3.7L138.2,238.5z M82.7,240.5V233l13.8-13.8c5-4.9,5-13,0-18.1c-3.7-3.8-9.2-4.7-13.8-2.8
	V151c0-7.1-5.7-12.8-12.8-12.8c-7.1,0-12.8,5.7-12.8,12.8v28.8l-3.8-3.8c-4.9-4.9-13-4.9-18.1,0c-5,4.9-5,13,0,18.1L57.1,216v24.6
	H9.9l60-220.1l24.5,90l34.2,130H82.7z"/>
<path class="st1" d="M74.2,245.6v14.3h-0.1v53.6l-8.4,0.1V246v-8.6h-0.2v7.3c0,2.4-1.9,4.2-4.2,4.2h-4.1v73h25.2v-73h-4.1
	C76.3,249.1,74.6,247.6,74.2,245.6z"/>
<path class="st1" d="M74.2,237.4v8.2c0.4,2,2.1,3.5,4.2,3.5h4.1v-11.6L74.2,237.4L74.2,237.4z"/>
<path class="st1" d="M65.6,244.7v-7.3h-8.3V249h4.1C63.7,249,65.6,247.1,65.6,244.7z"/>
</svg>
